<svg width="298" height="26" viewBox="0 0 298 26" fill="none" xmlns="http://www.w3.org/2000/svg">
<g style="mix-blend-mode:darken" filter="url(#filter0_b_1_2)">
<path d="M11.4335 3.404V14.192C11.4335 15.056 11.3055 15.864 11.0495 16.616C10.7935 17.368 10.4015 18.02 9.87351 18.572C9.35351 19.124 8.69751 19.556 7.90551 19.868C7.11351 20.18 6.18151 20.336 5.10951 20.336C4.13351 20.336 3.25351 20.2 2.46951 19.928C1.69351 19.656 0.957506 19.276 0.261506 18.788L1.55751 16.736C2.17351 17.144 2.74551 17.428 3.27351 17.588C3.80951 17.74 4.36551 17.816 4.94151 17.816C5.90151 17.816 6.67751 17.512 7.26951 16.904C7.86151 16.288 8.15751 15.38 8.15751 14.18V5.876H3.11751V3.404L11.4335 3.404ZM20.507 14.612C20.571 15.404 20.751 16.048 21.047 16.544C21.351 17.04 21.739 17.404 22.211 17.636C22.683 17.868 23.207 17.984 23.783 17.984C24.391 17.984 24.963 17.888 25.499 17.696C26.035 17.504 26.563 17.236 27.083 16.892L28.403 18.704C27.811 19.2 27.103 19.6 26.279 19.904C25.463 20.208 24.563 20.36 23.579 20.36C22.203 20.36 21.043 20.076 20.099 19.508C19.163 18.94 18.455 18.152 17.975 17.144C17.495 16.136 17.255 14.976 17.255 13.664C17.255 12.4 17.491 11.26 17.963 10.244C18.435 9.228 19.115 8.424 20.003 7.832C20.891 7.232 21.963 6.932 23.219 6.932C24.387 6.932 25.395 7.188 26.243 7.7C27.091 8.212 27.747 8.948 28.211 9.908C28.675 10.86 28.907 12.008 28.907 13.352C28.907 13.568 28.899 13.788 28.883 14.012C28.875 14.236 28.863 14.436 28.847 14.612H20.507ZM23.231 9.164C22.463 9.164 21.831 9.44 21.335 9.992C20.847 10.536 20.559 11.4 20.471 12.584H25.823C25.807 11.512 25.583 10.676 25.151 10.076C24.727 9.468 24.087 9.164 23.231 9.164ZM41.9656 1.88L45.1336 2.216V20H42.3256L42.1336 18.5C41.7416 19.06 41.2496 19.512 40.6576 19.856C40.0656 20.192 39.3776 20.36 38.5936 20.36C37.5216 20.36 36.6336 20.08 35.9296 19.52C35.2336 18.96 34.7136 18.176 34.3696 17.168C34.0336 16.152 33.8656 14.972 33.8656 13.628C33.8656 12.332 34.0656 11.18 34.4656 10.172C34.8656 9.164 35.4416 8.372 36.1936 7.796C36.9536 7.22 37.8536 6.932 38.8936 6.932C39.5176 6.932 40.0856 7.04 40.5976 7.256C41.1096 7.472 41.5656 7.792 41.9656 8.216V1.88ZM39.7456 9.296C38.9456 9.296 38.3136 9.644 37.8496 10.34C37.3936 11.028 37.1656 12.128 37.1656 13.64C37.1656 14.704 37.2616 15.556 37.4536 16.196C37.6456 16.828 37.9176 17.284 38.2696 17.564C38.6216 17.844 39.0376 17.984 39.5176 17.984C40.0456 17.984 40.5096 17.828 40.9096 17.516C41.3176 17.196 41.6696 16.8 41.9656 16.328V10.544C41.6696 10.152 41.3376 9.848 40.9696 9.632C40.6096 9.408 40.2016 9.296 39.7456 9.296ZM58.6963 7.292V17.756H62.0443V20H51.8083V17.756H55.5283V9.536H51.9283V7.292H58.6963ZM56.6443 0.883999C57.2283 0.883999 57.7003 1.064 58.0603 1.424C58.4283 1.784 58.6123 2.232 58.6123 2.768C58.6123 3.304 58.4283 3.756 58.0603 4.124C57.7003 4.484 57.2283 4.664 56.6443 4.664C56.0603 4.664 55.5843 4.484 55.2163 4.124C54.8483 3.756 54.6643 3.304 54.6643 2.768C54.6643 2.232 54.8483 1.784 55.2163 1.424C55.5843 1.064 56.0603 0.883999 56.6443 0.883999ZM75.5469 1.88L78.7149 2.216V20H75.9069L75.7149 18.5C75.3229 19.06 74.8309 19.512 74.2389 19.856C73.6469 20.192 72.9589 20.36 72.1749 20.36C71.1029 20.36 70.2149 20.08 69.5109 19.52C68.8149 18.96 68.2949 18.176 67.9509 17.168C67.6149 16.152 67.4469 14.972 67.4469 13.628C67.4469 12.332 67.6469 11.18 68.0469 10.172C68.4469 9.164 69.0229 8.372 69.7749 7.796C70.5349 7.22 71.4349 6.932 72.4749 6.932C73.0989 6.932 73.6669 7.04 74.1789 7.256C74.6909 7.472 75.1469 7.792 75.5469 8.216V1.88ZM73.3269 9.296C72.5269 9.296 71.8949 9.644 71.4309 10.34C70.9749 11.028 70.7469 12.128 70.7469 13.64C70.7469 14.704 70.8429 15.556 71.0349 16.196C71.2269 16.828 71.4989 17.284 71.8509 17.564C72.2029 17.844 72.6189 17.984 73.0989 17.984C73.6269 17.984 74.0909 17.828 74.4909 17.516C74.8989 17.196 75.2509 16.8 75.5469 16.328V10.544C75.2509 10.152 74.9189 9.848 74.5509 9.632C74.1909 9.408 73.7829 9.296 73.3269 9.296ZM92.2775 7.292V17.756L95.6255 17.756V20L85.3895 20V17.756H89.1095V9.536H85.5095V7.292H92.2775ZM90.2255 0.883999C90.8095 0.883999 91.2815 1.064 91.6415 1.424C92.0095 1.784 92.1935 2.232 92.1935 2.768C92.1935 3.304 92.0095 3.756 91.6415 4.124C91.2815 4.484 90.8095 4.664 90.2255 4.664C89.6415 4.664 89.1655 4.484 88.7975 4.124C88.4295 3.756 88.2455 3.304 88.2455 2.768C88.2455 2.232 88.4295 1.784 88.7975 1.424C89.1655 1.064 89.6415 0.883999 90.2255 0.883999ZM111.9 16.652C111.9 17.14 111.972 17.496 112.116 17.72C112.26 17.936 112.492 18.1 112.812 18.212L112.128 20.336C111.448 20.264 110.868 20.096 110.388 19.832C109.916 19.56 109.552 19.156 109.296 18.62C108.816 19.204 108.208 19.64 107.472 19.928C106.744 20.216 105.98 20.36 105.18 20.36C103.884 20.36 102.856 19.992 102.096 19.256C101.336 18.52 100.956 17.564 100.956 16.388C100.956 15.036 101.484 13.996 102.54 13.268C103.604 12.532 105.108 12.164 107.052 12.164H108.828V11.48C108.828 10.728 108.596 10.184 108.132 9.848C107.668 9.504 107 9.332 106.128 9.332C105.72 9.332 105.208 9.388 104.592 9.5C103.984 9.604 103.356 9.768 102.708 9.992L101.952 7.82C102.76 7.516 103.572 7.292 104.388 7.148C105.212 7.004 105.96 6.932 106.632 6.932C108.416 6.932 109.74 7.312 110.604 8.072C111.468 8.824 111.9 9.892 111.9 11.276V16.652ZM106.212 18.068C106.692 18.068 107.176 17.932 107.664 17.66C108.16 17.388 108.548 17.008 108.828 16.52V14.048H107.58C106.404 14.048 105.552 14.236 105.024 14.612C104.504 14.988 104.244 15.52 104.244 16.208C104.244 16.8 104.412 17.26 104.748 17.588C105.084 17.908 105.572 18.068 106.212 18.068ZM121.719 1.916V8.72C122.247 8.12 122.839 7.672 123.495 7.376C124.159 7.08 124.851 6.932 125.571 6.932C126.739 6.932 127.615 7.264 128.199 7.928C128.791 8.584 129.087 9.508 129.087 10.7V20H125.919V11.408C125.919 10.64 125.799 10.096 125.559 9.776C125.327 9.456 124.927 9.296 124.359 9.296C124.023 9.296 123.695 9.376 123.375 9.536C123.063 9.688 122.767 9.896 122.487 10.16C122.215 10.424 121.959 10.72 121.719 11.048V20H118.551V2.228L121.719 1.916Z" fill="#222222"/>
<path d="M143.368 16.196H137.908L136.876 20H133.48L138.676 3.404H142.708L147.892 20H144.4L143.368 16.196ZM138.496 13.736H142.756L140.632 5.864L138.496 13.736ZM163.817 7.292L159.101 12.956L164.273 20H160.541L155.645 13.04L160.325 7.292H163.817ZM155.465 1.88V20H152.297V2.216L155.465 1.88ZM176.348 7.292V17.756H179.696V20H169.46V17.756H173.18V9.536H169.58V7.292L176.348 7.292ZM174.296 0.883999C174.88 0.883999 175.352 1.064 175.712 1.424C176.08 1.784 176.264 2.232 176.264 2.768C176.264 3.304 176.08 3.756 175.712 4.124C175.352 4.484 174.88 4.664 174.296 4.664C173.712 4.664 173.236 4.484 172.868 4.124C172.5 3.756 172.316 3.304 172.316 2.768C172.316 2.232 172.5 1.784 172.868 1.424C173.236 1.064 173.712 0.883999 174.296 0.883999ZM185.83 20V7.292H188.59L188.818 8.864C189.362 8.224 189.974 7.744 190.654 7.424C191.334 7.096 192.066 6.932 192.85 6.932C193.994 6.932 194.866 7.264 195.466 7.928C196.066 8.584 196.366 9.508 196.366 10.7V20H193.198V11.936C193.198 11.296 193.158 10.784 193.078 10.4C192.998 10.008 192.846 9.728 192.622 9.56C192.398 9.384 192.074 9.296 191.65 9.296C191.306 9.296 190.974 9.372 190.654 9.524C190.342 9.676 190.046 9.88 189.766 10.136C189.494 10.392 189.238 10.676 188.998 10.988V20H185.83ZM205.789 8.72C206.213 8.16 206.713 7.724 207.289 7.412C207.873 7.092 208.501 6.932 209.173 6.932C210.285 6.932 211.185 7.208 211.873 7.76C212.569 8.304 213.077 9.076 213.397 10.076C213.725 11.076 213.889 12.256 213.889 13.616C213.889 14.92 213.697 16.08 213.313 17.096C212.929 18.112 212.357 18.912 211.597 19.496C210.845 20.072 209.921 20.36 208.825 20.36C207.449 20.36 206.365 19.836 205.573 18.788L205.429 20H202.621V2.216L205.789 1.88V8.72ZM208.009 17.996C208.817 17.996 209.449 17.652 209.905 16.964C210.361 16.276 210.589 15.172 210.589 13.652C210.589 12.58 210.493 11.728 210.301 11.096C210.117 10.456 209.849 10 209.497 9.728C209.153 9.448 208.737 9.308 208.249 9.308C207.721 9.308 207.253 9.468 206.845 9.788C206.445 10.108 206.093 10.504 205.789 10.976V16.664C206.061 17.088 206.381 17.416 206.749 17.648C207.117 17.88 207.537 17.996 208.009 17.996ZM224.692 6.932C225.956 6.932 227.028 7.208 227.908 7.76C228.788 8.312 229.456 9.092 229.912 10.1C230.376 11.1 230.608 12.272 230.608 13.616C230.608 14.992 230.376 16.184 229.912 17.192C229.448 18.2 228.776 18.98 227.896 19.532C227.016 20.084 225.944 20.36 224.68 20.36C223.424 20.36 222.352 20.092 221.464 19.556C220.584 19.012 219.912 18.24 219.448 17.24C218.984 16.232 218.752 15.032 218.752 13.64C218.752 12.312 218.984 11.144 219.448 10.136C219.912 9.128 220.588 8.344 221.476 7.784C222.364 7.216 223.436 6.932 224.692 6.932ZM224.692 9.32C223.804 9.32 223.14 9.668 222.7 10.364C222.268 11.06 222.052 12.152 222.052 13.64C222.052 15.144 222.268 16.244 222.7 16.94C223.132 17.628 223.792 17.972 224.68 17.972C225.568 17.972 226.228 17.628 226.66 16.94C227.092 16.244 227.308 15.136 227.308 13.616C227.308 12.136 227.092 11.052 226.66 10.364C226.228 9.668 225.572 9.32 224.692 9.32ZM247.71 7.292L243.402 20.024C243.05 21.064 242.594 21.956 242.034 22.7C241.474 23.444 240.766 24.032 239.91 24.464C239.062 24.904 238.022 25.164 236.79 25.244L236.394 22.952C237.25 22.832 237.934 22.652 238.446 22.412C238.958 22.172 239.366 21.856 239.67 21.464C239.982 21.072 240.25 20.584 240.474 20H239.394L235.23 7.292L238.578 7.292L241.458 17.888L244.458 7.292H247.71ZM258.273 6.932C259.537 6.932 260.609 7.208 261.489 7.76C262.369 8.312 263.037 9.092 263.493 10.1C263.957 11.1 264.189 12.272 264.189 13.616C264.189 14.992 263.957 16.184 263.493 17.192C263.029 18.2 262.357 18.98 261.477 19.532C260.597 20.084 259.525 20.36 258.261 20.36C257.005 20.36 255.933 20.092 255.045 19.556C254.165 19.012 253.493 18.24 253.029 17.24C252.565 16.232 252.333 15.032 252.333 13.64C252.333 12.312 252.565 11.144 253.029 10.136C253.493 9.128 254.169 8.344 255.057 7.784C255.945 7.216 257.017 6.932 258.273 6.932ZM258.273 9.32C257.385 9.32 256.721 9.668 256.281 10.364C255.849 11.06 255.633 12.152 255.633 13.64C255.633 15.144 255.849 16.244 256.281 16.94C256.713 17.628 257.373 17.972 258.261 17.972C259.149 17.972 259.809 17.628 260.241 16.94C260.673 16.244 260.889 15.136 260.889 13.616C260.889 12.136 260.673 11.052 260.241 10.364C259.809 9.668 259.153 9.32 258.273 9.32ZM280.104 20H276.384L275.1 11.18L273.732 20H270.084L268.056 7.292L271.032 7.292L272.136 18.032L273.708 8.9H276.624L278.064 18.032L279.192 7.292H282.048L280.104 20ZM296.714 16.652C296.714 17.14 296.786 17.496 296.93 17.72C297.074 17.936 297.306 18.1 297.626 18.212L296.942 20.336C296.262 20.264 295.682 20.096 295.202 19.832C294.73 19.56 294.366 19.156 294.11 18.62C293.63 19.204 293.022 19.64 292.286 19.928C291.558 20.216 290.794 20.36 289.994 20.36C288.698 20.36 287.67 19.992 286.91 19.256C286.15 18.52 285.77 17.564 285.77 16.388C285.77 15.036 286.298 13.996 287.354 13.268C288.418 12.532 289.922 12.164 291.866 12.164H293.642V11.48C293.642 10.728 293.41 10.184 292.946 9.848C292.482 9.504 291.814 9.332 290.942 9.332C290.534 9.332 290.022 9.388 289.406 9.5C288.798 9.604 288.17 9.768 287.522 9.992L286.766 7.82C287.574 7.516 288.386 7.292 289.202 7.148C290.026 7.004 290.774 6.932 291.446 6.932C293.23 6.932 294.554 7.312 295.418 8.072C296.282 8.824 296.714 9.892 296.714 11.276V16.652ZM291.026 18.068C291.506 18.068 291.99 17.932 292.478 17.66C292.974 17.388 293.362 17.008 293.642 16.52V14.048H292.394C291.218 14.048 290.366 14.236 289.838 14.612C289.318 14.988 289.058 15.52 289.058 16.208C289.058 16.8 289.226 17.26 289.562 17.588C289.898 17.908 290.386 18.068 291.026 18.068Z" fill="#E9B949"/>
</g>
<defs>
<filter id="filter0_b_1_2" x="-3.73853" y="-3.11597" width="305.365" height="32.36" filterUnits="userSpaceOnUse" color-interpolation-filters="sRGB">
<feFlood flood-opacity="0" result="BackgroundImageFix"/>
<feGaussianBlur in="BackgroundImage" stdDeviation="2"/>
<feComposite in2="SourceAlpha" operator="in" result="effect1_backgroundBlur_1_2"/>
<feBlend mode="normal" in="SourceGraphic" in2="effect1_backgroundBlur_1_2" result="shape"/>
</filter>
</defs>
</svg>
